<svg viewBox="0 0 1024 1024" xmlns="http://www.w3.org/2000/svg"><defs><linearGradient id="gicb" gradientUnits="userSpaceOnUse" x1="0" y1="-167" x2="660" y2="0"><stop offset="0" stop-color="#0B7C4F"/><stop offset="1" stop-color="#76E6A0"/></linearGradient></defs><rect x="0" y="0" width="1024" height="1024" fill="#16132E"/><g transform="translate(102.4,610.1) scale(1.1726) skewX(-13)"><path d="M470 512V0H249V512H23V688H695V512Z" transform="translate(0.00,0.00) scale(0.18000,-0.18000)" fill="url(#gicb)" /><path d="M788 344Q788 170 691.0 79.0Q594 -12 416 -12Q238 -12 141.5 78.5Q45 169 45 344Q45 519 141.5 609.5Q238 700 416 700Q594 700 691.0 609.0Q788 518 788 344ZM271 376V312Q271 239 308.0 196.0Q345 153 416 153Q487 153 524.5 196.0Q562 239 562 312V376Q562 449 524.5 492.0Q487 535 416 535Q345 535 308.0 492.0Q271 449 271 376Z" transform="translate(131.96,0.00) scale(0.18000,-0.18000)" fill="url(#gicb)" /><path d="M788 344Q788 170 691.0 79.0Q594 -12 416 -12Q238 -12 141.5 78.5Q45 169 45 344Q45 519 141.5 609.5Q238 700 416 700Q594 700 691.0 609.0Q788 518 788 344ZM271 376V312Q271 239 308.0 196.0Q345 153 416 153Q487 153 524.5 196.0Q562 239 562 312V376Q562 449 524.5 492.0Q487 535 416 535Q345 535 308.0 492.0Q271 449 271 376Z" transform="translate(283.90,0.00) scale(0.18000,-0.18000)" fill="url(#gicb)" /><path d="M74 688H295V176H648V0H74Z" transform="translate(436.96,0.00) scale(0.18000,-0.18000)" fill="url(#gicb)" /><path d="M74 688H669V523H295V428H615V270H295V165H676V0H74Z" transform="translate(559.02,0.00) scale(0.18000,-0.18000)" fill="url(#gicb)" /><line x1="613.0" y1="-136.4" x2="640.0" y2="-165.2" stroke="white" stroke-width="15.3" stroke-linecap="round"/></g></svg>
