<!--
  Tôllé · wordmark seul transparent — pour fond clair (landing)
  Accents en navy #16132E pour rester visibles sur sable
-->
<svg viewBox="0 0 1300 380" xmlns="http://www.w3.org/2000/svg">
  <defs>
    <linearGradient id="glogo" gradientUnits="userSpaceOnUse" x1="0" y1="-167" x2="660" y2="0">
      <stop offset="0" stop-color="#0B7C4F"/>
      <stop offset="1" stop-color="#10B981"/>
    </linearGradient>
  </defs>
  <g transform="translate(20,330) scale(1.85) skewX(-13)">
    <path d="M470 512V0H249V512H23V688H695V512Z" transform="translate(0,0) scale(0.18,-0.18)" fill="url(#glogo)"/>
    <path d="M788 344Q788 170 691 79Q594 -12 416 -12Q238 -12 141.5 78.5Q45 169 45 344Q45 519 141.5 609.5Q238 700 416 700Q594 700 691 609Q788 518 788 344ZM271 376V312Q271 239 308 196Q345 153 416 153Q487 153 524.5 196Q562 239 562 312V376Q562 449 524.5 492Q487 535 416 535Q345 535 308 492Q271 449 271 376Z" transform="translate(131.96,0) scale(0.18,-0.18)" fill="url(#glogo)"/>
    <path d="M74 688H295V176H648V0H74Z" transform="translate(283.9,0) scale(0.18,-0.18)" fill="url(#glogo)"/>
    <path d="M74 688H295V176H648V0H74Z" transform="translate(405.96,0) scale(0.18,-0.18)" fill="url(#glogo)"/>
    <path d="M74 688H669V523H295V428H615V270H295V165H676V0H74Z" transform="translate(528.02,0) scale(0.18,-0.18)" fill="url(#glogo)"/>
    <!-- Accents en NAVY pour fond clair -->
    <polyline points="161.9,-138.6 206.9,-167.4 251.9,-138.6" fill="none" stroke="#16132E" stroke-width="15.3" stroke-linecap="round" stroke-linejoin="round"/>
    <line x1="582.0" y1="-136.4" x2="609.0" y2="-165.2" stroke="#16132E" stroke-width="15.3" stroke-linecap="round"/>
  </g>
</svg>
